HIERARCHY
ROOT Hips
{
	OFFSET	0.00	0.00	0.00
	CHANNELS 6 Xposition Yposition Zposition Zrotation Xrotation Yrotation
	JOINT LeftUpLeg
	{
		OFFSET	 0.126116	-0.065224	 0.014019
		CHANNELS 3 Zrotation Xrotation Yrotation
		JOINT LeftLeg
		{
			OFFSET	 0.000000	 0.569914	 0.000000
			CHANNELS 3 Zrotation Xrotation Yrotation
			JOINT LeftFoot
			{
				OFFSET	 0.000000	 0.544423	 0.000000
				CHANNELS 3 Zrotation Xrotation Yrotation
				JOINT LeftToeBase
				{
					OFFSET	 0.000000	 0.207117	 0.000000
					CHANNELS 3 Zrotation Xrotation Yrotation
					End Site
					{
						OFFSET	 0.000000	 0.207117	 0.000000
					}
				}
			}
		}
	}
	JOINT RightUpLeg
	{
		OFFSET	-0.124023	-0.065224	 0.008373
		CHANNELS 3 Zrotation Xrotation Yrotation
		JOINT RightLeg
		{
			OFFSET	 0.000000	 0.570047	 0.000000
			CHANNELS 3 Zrotation Xrotation Yrotation
			JOINT RightFoot
			{
				OFFSET	 0.000000	 0.544354	 0.000000
				CHANNELS 3 Zrotation Xrotation Yrotation
				JOINT RightToeBase
				{
					OFFSET	 0.000000	 0.207540	 0.000000
					CHANNELS 3 Zrotation Xrotation Yrotation
					End Site
					{
						OFFSET	 0.000000	 0.207540	 0.000000
					}
				}
			}
		}
	}
	JOINT Spine
	{
		OFFSET	 0.000184	 0.117403	 0.007763
		CHANNELS 3 Zrotation Xrotation Yrotation
		JOINT Spine1
		{
			OFFSET	 0.000000	 0.137269	 0.000000
			CHANNELS 3 Zrotation Xrotation Yrotation
			JOINT Spine2
			{
				OFFSET	 0.000000	 0.156879	 0.000000
				CHANNELS 3 Zrotation Xrotation Yrotation
				JOINT LeftShoulder
				{
					OFFSET	 0.080501	 0.160143	 0.002496
					CHANNELS 3 Zrotation Xrotation Yrotation
					JOINT LeftArm
					{
						OFFSET	 0.000000	 0.164363	 0.000000
						CHANNELS 3 Zrotation Xrotation Yrotation
						JOINT LeftForeArm
						{
							OFFSET	 0.000000	 0.364576	 0.000000
							CHANNELS 3 Zrotation Xrotation Yrotation
							JOINT LeftHand
							{
								OFFSET	 0.000000	 0.360812	 0.000000
								CHANNELS 3 Zrotation Xrotation Yrotation
								JOINT LeftHandIndex1
								{
									OFFSET	 0.000000	 0.086006	 0.000000
									CHANNELS 3 Zrotation Xrotation Yrotation
									JOINT LeftHandIndex2
									{
										OFFSET	 0.000000	 0.047237	 0.000000
										CHANNELS 3 Zrotation Xrotation Yrotation
										JOINT LeftHandIndex3
										{
											OFFSET	-0.004284	 0.038165	 0.000551
											CHANNELS 3 Zrotation Xrotation Yrotation
											End Site
											{
												OFFSET	-0.004284	 0.038165	 0.000551
											}
										}
									}
								}
							}
						}
					}
				}
				JOINT Neck
				{
					OFFSET	 0.000000	 0.176489	 0.000000
					CHANNELS 3 Zrotation Xrotation Yrotation
					JOINT Head
					{
						OFFSET	 0.000000	 0.077941	 0.001747
						CHANNELS 3 Zrotation Xrotation Yrotation
						End Site
						{
							OFFSET	 0.000000	 0.077941	 0.001747
						}
					}
				}
				JOINT RightShoulder
				{
					OFFSET	-0.080363	 0.159706	-0.000306
					CHANNELS 3 Zrotation Xrotation Yrotation
					JOINT RightArm
					{
						OFFSET	 0.000000	 0.164196	 0.000000
						CHANNELS 3 Zrotation Xrotation Yrotation
						JOINT RightForeArm
						{
							OFFSET	 0.000000	 0.365611	 0.000000
							CHANNELS 3 Zrotation Xrotation Yrotation
							JOINT RightHand
							{
								OFFSET	 0.000000	 0.360648	 0.000000
								CHANNELS 3 Zrotation Xrotation Yrotation
								JOINT RightHandIndex1
								{
									OFFSET	 0.000000	 0.069977	 0.000000
									CHANNELS 3 Zrotation Xrotation Yrotation
									JOINT RightHandIndex2
									{
										OFFSET	 0.000000	 0.052305	 0.000000
										CHANNELS 3 Zrotation Xrotation Yrotation
										JOINT RightHandIndex3
										{
											OFFSET	 0.009002	 0.042196	 0.000782
											CHANNELS 3 Zrotation Xrotation Yrotation
											End Site
											{
												OFFSET	 0.009002	 0.042196	 0.000782
											}
										}
									}
								}
							}
						}
					}
				}
			}
		}
	}
}
MOTION
Frames:    8
Frame Time: 0.03333334
 0.470871	 1.028830	 0.609062	-9.297090	-35.291450	-178.455000	 108.610400	 78.244140	 56.294280	 36.602170	-65.984880	 41.401260	 31.242620	 74.382930	-33.105050	 1.292262	 28.425850	-2.713146	 82.067910	 87.773220	 90.449510	-36.150820	-71.953230	-42.923080	-43.406000	 70.066250	 46.192070	-1.288183	 28.361890	 2.710176	 1.227252	 13.602450	 6.509800	 3.474518	 16.667550	-0.049659	-5.809274	 3.777879	-15.364760	-123.977700	 32.220840	 107.750600	 30.950390	-6.435585	 9.022492	 44.674510	-3.274568	-41.113210	 27.505090	 16.474860	 21.569110	-6.580301	 5.266122	 0.000000	 0.000000	 0.000000	 0.000000	 0.000000	 0.000000	 0.000000	 9.133186	 33.452820	-3.870430	-5.410002	-44.448220	-4.041602	 124.717000	 30.679320	-107.435400	-58.281230	-0.552110	 5.932816	-36.797990	 0.818795	-6.345765	 32.204610	-40.090600	-6.052045	 15.208500	 5.323790	 0.000000	 0.000000	 0.000000	 0.000000	 0.000000	 0.000000	 0.000000
 0.467781	 1.047801	 0.608226	-8.742770	-33.824220	-178.132900	 122.158000	 76.647650	 43.172040	 32.788150	-63.868980	 37.580770	 29.239430	 73.635830	-30.877780	 1.292262	 28.425850	-2.713146	 138.597600	 85.840700	 34.452910	-31.395700	-69.748060	-38.641550	-42.156470	 69.353430	 44.996250	-1.288183	 28.361890	 2.710176	 1.248128	 13.337900	 6.635274	 3.532180	 16.622440	 0.139818	-5.473341	 3.080452	-15.433790	-123.215700	 31.019010	 106.794300	 30.718930	-3.461699	 8.571780	 46.164920	-3.359327	-40.351480	 27.662180	 16.039910	 20.778470	-6.580301	 5.266122	 0.000000	 0.000000	 0.000000	 0.000000	 0.000000	 0.000000	 0.000000	 7.034347	 29.010320	-2.925309	-4.134197	-40.247400	-3.906908	 124.649300	 29.625740	-106.839100	-56.800480	 1.066565	 4.829627	-39.754530	 0.874100	-5.512697	 30.866240	-41.989960	-6.995886	 15.208500	 5.323790	 0.000000	 0.000000	 0.000000	 0.000000	 0.000000	 0.000000	 0.000000
 0.463223	 1.072927	 0.607594	-8.136106	-32.356370	-177.898200	 134.484100	 74.022060	 31.381910	 28.193820	-60.651240	 33.127830	 26.994310	 72.479080	-28.330050	 1.292262	 28.425850	-2.713146	 155.294300	 81.962000	 18.333620	-26.014400	-66.335440	-33.889650	-40.360650	 68.279340	 43.243900	-1.288183	 28.361890	 2.710176	 1.274443	 12.800000	 6.809997	 3.369987	 15.815500	 0.518541	-5.072237	 2.523603	-15.488220	-122.486000	 29.806220	 105.867900	 29.887420	 0.366067	 8.240447	 47.907970	-3.455610	-39.635160	 28.166090	 14.947800	 20.166310	-6.580301	 5.266122	 0.000000	 0.000000	 0.000000	 0.000000	 0.000000	 0.000000	 0.000000	 5.091155	 24.528050	-2.193846	-2.927078	-36.072150	-3.860598	 124.594100	 28.564830	-106.249800	-54.432370	 3.082366	 3.320220	-43.415790	 0.939477	-4.685032	 29.599060	-44.520270	-7.797101	 15.208500	 5.323790	 0.000000	 0.000000	 0.000000	 0.000000	 0.000000	 0.000000	 0.000000
 0.458816	 1.097548	 0.606561	-7.540952	-30.972370	-177.694000	 143.220400	 70.935560	 23.226860	 24.318210	-57.173560	 29.401080	 24.870490	 71.268410	-25.899610	 1.292262	 28.425850	-2.713146	 161.226900	 77.888310	 12.969300	-21.793590	-62.628940	-30.352250	-38.698570	 67.088870	 41.613500	-1.288183	 28.361890	 2.710176	 1.305538	 12.194470	 6.958880	 3.194480	 15.113980	 0.855863	-4.667424	 1.832566	-15.523280	-121.790000	 28.588450	 104.973700	 28.970730	 4.170715	 8.001094	 49.584300	-3.545356	-38.979260	 29.003130	 13.253010	 19.523320	-6.580301	 5.266122	 0.000000	 0.000000	 0.000000	 0.000000	 0.000000	 0.000000	 0.000000	 3.278208	 20.046670	-1.649553	-1.772865	-31.930890	-3.888099	 124.551700	 27.508860	-105.669600	-52.199960	 4.988065	 1.761292	-46.798350	 0.996373	-3.876553	 27.719930	-47.762470	-8.998185	 15.208500	 5.323790	 0.000000	 0.000000	 0.000000	 0.000000	 0.000000	 0.000000	 0.000000
 0.456143	 1.114659	 0.604931	-7.034490	-29.685420	-177.465200	 148.355900	 68.276710	 18.616520	 22.030910	-54.693050	 27.083850	 23.232140	 70.521350	-24.042410	 1.292262	 28.425850	-2.713146	 163.989000	 74.633460	 10.720930	-19.427060	-59.977180	-28.578830	-37.924930	 66.203160	 40.861710	-1.288183	 28.361890	 2.710176	 1.322211	 11.765680	 7.031789	 3.219564	 15.406640	 0.991867	-4.349161	 0.717186	-15.543150	-121.139400	 27.391680	 104.127200	 28.563470	 7.206735	 7.669576	 50.809140	-3.608830	-38.412160	 30.180470	 11.062140	 18.747290	-6.580301	 5.266122	 0.000000	 0.000000	 0.000000	 0.000000	 0.000000	 0.000000	 0.000000	 1.601743	 15.677670	-1.274747	-0.678237	-27.902860	-3.976299	 124.522600	 26.485490	-105.109800	-50.927600	 6.448305	 0.633364	-49.195050	 1.034583	-3.112687	 24.544980	-51.659450	-11.243560	 15.208500	 5.323790	 0.000000	 0.000000	 0.000000	 0.000000	 0.000000	 0.000000	 0.000000
 0.451516	 1.143135	 0.601544	-6.151751	-28.084390	-177.070300	 154.373700	 64.038060	 13.551510	 18.592380	-50.198230	 24.378600	 22.264540	 68.797910	-22.858360	 1.292262	 28.425850	-2.713146	 166.816700	 69.639210	 8.824162	-16.064680	-55.216770	-25.758450	-35.634010	 64.892210	 38.522160	-1.288183	 28.361890	 2.710176	 1.383609	 10.844920	 7.188971	 2.997699	 14.073630	 1.481475	-3.800223	-0.103936	-15.499520	-117.870500	 25.291860	 102.102700	 28.629430	 13.149770	 7.011438	 52.787990	-3.708020	-37.167040	 31.236590	 8.233037	 18.179300	-6.580301	 5.266122	 0.000000	 0.000000	 0.000000	 0.000000	 0.000000	 0.000000	 0.000000	 0.919133	 8.969048	-1.095480	-0.372776	-21.895460	-4.008564	 122.413600	 25.007420	-103.673700	-49.764150	 9.677408	 0.599608	-53.387890	 1.097184	-3.692614	 23.026950	-54.680970	-12.703520	 15.208500	 5.323790	 0.000000	 0.000000	 0.000000	 0.000000	 0.000000	 0.000000	 0.000000
 0.449849	 1.158579	 0.597273	-5.387215	-26.484460	-176.583500	 157.570300	 60.979230	 11.203720	 17.162390	-48.003580	 23.364220	 22.135600	 68.128850	-22.721350	 1.292262	 28.425850	-2.713146	 168.632800	 66.134330	 7.916686	-14.694090	-52.847350	-24.695740	-34.961830	 64.371420	 37.782430	-1.288183	 28.361890	 2.710176	 1.411548	 10.295030	 7.212019	 3.116336	 14.664290	 1.674931	-3.394789	-1.840568	-15.460710	-114.476100	 23.010140	 100.143000	 29.979180	 18.181390	 5.751156	 53.899560	-3.761811	-35.964540	 32.868660	 5.058598	 17.544800	-6.580301	 5.266122	 0.000000	 0.000000	 0.000000	 0.000000	 0.000000	 0.000000	 0.000000	 0.389475	 2.075093	-0.998512	-0.170320	-15.741630	-4.036606	 120.154300	 23.460760	-102.235800	-50.424020	 12.594650	 1.699508	-56.115360	 1.134724	-4.363155	 18.966780	-58.271510	-16.397770	 15.208500	 5.323790	 0.000000	 0.000000	 0.000000	 0.000000	 0.000000	 0.000000	 0.000000
 0.448603	 1.172046	 0.593887	-4.693248	-25.168700	-176.147600	 159.969500	 58.258050	 9.646262	 15.892380	-45.867920	 22.535630	 21.995690	 67.413070	-22.592570	 1.292262	 28.425850	-2.713146	 169.625400	 63.044280	 7.703028	-13.489420	-50.512050	-23.308880	-33.564670	 64.013620	 36.119290	-1.288183	 28.361890	 2.710176	 1.443271	 9.790350	 7.214993	 3.416406	 15.581650	 1.748321	-3.115848	-3.620085	-15.382180	-113.668900	 21.442770	 99.262880	 30.319170	 20.975030	 6.041728	 54.725400	-3.800769	-34.786860	 35.245790	 1.692114	 17.234710	-6.580301	 5.266122	 0.000000	 0.000000	 0.000000	 0.000000	 0.000000	 0.000000	 0.000000	-0.473733	-1.662143	-0.971088	 0.259536	-12.429270	-4.136532	 118.783200	 22.020080	-101.203900	-50.245040	 15.167420	 2.624169	-58.433890	 1.183868	-5.047354	 13.467890	-61.709910	-21.134710	 15.208500	 5.323790	 0.000000	 0.000000	 0.000000	 0.000000	 0.000000	 0.000000	 0.000000
